<mxfile host="app.diagrams.net" modified="2024-04-29T05:06:38.794Z" agent="Mozilla/5.0 (Windows NT 10.0; Win64; x64) AppleWebKit/537.36 (KHTML, like Gecko) Chrome/124.0.0.0 Safari/537.36 Edg/124.0.0.0" etag="xg7p_3mXsf7zItPgT8rU" version="24.3.1" type="device">
  <diagram name="第 1 页" id="nhxhb2A052rTCRTJNskd">
    <mxGraphModel dx="1593" dy="884" grid="1" gridSize="10" guides="1" tooltips="1" connect="1" arrows="1" fold="1" page="1" pageScale="1" pageWidth="827" pageHeight="1169" math="0" shadow="0">
      <root>
        <mxCell id="0" />
        <mxCell id="1" parent="0" />
        <mxCell id="tPdqhXPq1oOfbnj5yxoE-2" value="" style="ellipse;whiteSpace=wrap;html=1;aspect=fixed;dashed=1;dashPattern=1 2;fillColor=#dae8fc;strokeColor=none;gradientColor=none;shadow=0;" vertex="1" parent="1">
          <mxGeometry x="189.81" y="289.55" width="600" height="600" as="geometry" />
        </mxCell>
        <mxCell id="7q5nI9EUTdH4edbtuk_T-1" value="" style="rounded=1;whiteSpace=wrap;html=1;rotation=90;" parent="1" vertex="1">
          <mxGeometry x="376.3189907139965" y="529.3967831682835" width="226.9902122815535" height="120.30160841585824" as="geometry" />
        </mxCell>
        <mxCell id="7q5nI9EUTdH4edbtuk_T-9" value="" style="endArrow=classic;html=1;rounded=0;dashed=1;opacity=20;" parent="1" edge="1">
          <mxGeometry width="50" height="50" relative="1" as="geometry">
            <mxPoint x="276.0649802896437" y="230.64778893556874" as="sourcePoint" />
            <mxPoint x="887.046968347492" y="689.798927722761" as="targetPoint" />
          </mxGeometry>
        </mxCell>
        <mxCell id="7q5nI9EUTdH4edbtuk_T-12" value="" style="endArrow=classic;html=1;rounded=0;dashed=1;opacity=20;" parent="1" edge="1">
          <mxGeometry width="50" height="50" relative="1" as="geometry">
            <mxPoint x="281.7397355966825" y="228.64276212863777" as="sourcePoint" />
            <mxPoint x="489.81409685477325" y="589.5475873762126" as="targetPoint" />
          </mxGeometry>
        </mxCell>
        <mxCell id="7q5nI9EUTdH4edbtuk_T-6" value="" style="group;rotation=35;" parent="1" vertex="1" connectable="0">
          <mxGeometry x="77.44854454328438" y="96.31099287119372" width="226.9902122815535" height="140.35187648516794" as="geometry" />
        </mxCell>
        <mxCell id="7q5nI9EUTdH4edbtuk_T-4" value="" style="rounded=0;whiteSpace=wrap;html=1;movable=1;resizable=1;rotatable=1;deletable=1;editable=1;locked=0;connectable=1;rotation=35;" parent="7q5nI9EUTdH4edbtuk_T-6" vertex="1">
          <mxGeometry x="1.8915851023462793" y="8.02010722772388" width="194.56303909847443" height="105.26390736387596" as="geometry" />
        </mxCell>
        <mxCell id="7q5nI9EUTdH4edbtuk_T-10" style="edgeStyle=orthogonalEdgeStyle;rounded=0;orthogonalLoop=1;jettySize=auto;html=1;exitX=0;exitY=0.5;exitDx=0;exitDy=0;" parent="7q5nI9EUTdH4edbtuk_T-6" source="7q5nI9EUTdH4edbtuk_T-5" edge="1">
          <mxGeometry relative="1" as="geometry">
            <mxPoint x="206.18277615574448" y="138.34684967823696" as="targetPoint" />
          </mxGeometry>
        </mxCell>
        <mxCell id="7q5nI9EUTdH4edbtuk_T-5" value="" style="triangle;whiteSpace=wrap;html=1;rotation=-145;movable=1;resizable=1;rotatable=1;deletable=1;editable=1;locked=0;connectable=1;" parent="7q5nI9EUTdH4edbtuk_T-6" vertex="1">
          <mxGeometry x="117.27827634546934" y="40.10053613861941" width="97.28151954923722" height="140.35187648516794" as="geometry" />
        </mxCell>
        <mxCell id="7q5nI9EUTdH4edbtuk_T-21" value="&lt;div style=&quot;background-color: rgb(255, 255, 255); font-family: Consolas, &amp;quot;Courier New&amp;quot;, monospace; font-size: 14px; line-height: 19px; white-space-collapse: preserve;&quot;&gt;ViewStart&lt;/div&gt;" style="text;html=1;align=center;verticalAlign=middle;resizable=0;points=[];autosize=1;strokeColor=none;fillColor=none;" parent="7q5nI9EUTdH4edbtuk_T-6" vertex="1">
          <mxGeometry x="68.49755307038842" y="45.65010722772388" width="90" height="30" as="geometry" />
        </mxCell>
        <mxCell id="7q5nI9EUTdH4edbtuk_T-15" value="" style="endArrow=none;dashed=1;html=1;rounded=0;strokeColor=#CC0000;fillColor=#d5e8d4;strokeWidth=2;" parent="1" edge="1">
          <mxGeometry width="50" height="50" relative="1" as="geometry">
            <mxPoint x="489.81409685477325" y="589.5475873762126" as="sourcePoint" />
            <mxPoint x="584.3933519720872" y="469.2459789603543" as="targetPoint" />
          </mxGeometry>
        </mxCell>
        <mxCell id="7q5nI9EUTdH4edbtuk_T-16" value="&lt;div style=&quot;font-family: Consolas, &amp;quot;Courier New&amp;quot;, monospace; font-size: 14px; line-height: 19px; white-space-collapse: preserve;&quot;&gt;ViewDir&lt;/div&gt;" style="text;html=1;align=center;verticalAlign=middle;resizable=0;points=[];autosize=1;strokeColor=none;fillColor=none;" parent="1" vertex="1">
          <mxGeometry x="850.0031918122977" y="699.9991957920709" width="80" height="30" as="geometry" />
        </mxCell>
        <mxCell id="7q5nI9EUTdH4edbtuk_T-17" value="&lt;div style=&quot;font-family: Consolas, &amp;quot;Courier New&amp;quot;, monospace; font-size: 14px; line-height: 19px; white-space-collapse: preserve;&quot;&gt;CameraToCenter&lt;/div&gt;" style="text;html=1;align=center;verticalAlign=middle;resizable=0;points=[];autosize=1;strokeColor=none;fillColor=none;glass=0;shadow=0;rounded=0;labelBackgroundColor=none;" parent="1" vertex="1">
          <mxGeometry x="259.99877843244303" y="399.9951747524251" width="130" height="30" as="geometry" />
        </mxCell>
        <mxCell id="7q5nI9EUTdH4edbtuk_T-18" value="" style="shape=curlyBracket;whiteSpace=wrap;html=1;rounded=1;labelPosition=left;verticalLabelPosition=middle;align=right;verticalAlign=middle;rotation=128;opacity=20;" parent="1" vertex="1">
          <mxGeometry x="470.9" y="80" width="37.83" height="389.25" as="geometry" />
        </mxCell>
        <mxCell id="7q5nI9EUTdH4edbtuk_T-19" value="&lt;div style=&quot;font-family: Consolas, &amp;quot;Courier New&amp;quot;, monospace; font-size: 14px; line-height: 19px; white-space-collapse: preserve;&quot;&gt;DotToCenter&lt;/div&gt;" style="text;html=1;align=center;verticalAlign=middle;resizable=0;points=[];autosize=1;strokeColor=none;fillColor=none;fontColor=default;" parent="1" vertex="1">
          <mxGeometry x="470.8982458313105" y="220.0022259900184" width="110" height="30" as="geometry" />
        </mxCell>
        <mxCell id="7q5nI9EUTdH4edbtuk_T-20" value="&lt;div style=&quot;font-family: Consolas, &amp;quot;Courier New&amp;quot;, monospace; font-size: 14px; line-height: 19px; white-space-collapse: preserve;&quot;&gt;TraceStart&lt;/div&gt;" style="text;html=1;align=center;verticalAlign=middle;resizable=0;points=[];autosize=1;strokeColor=none;fillColor=none;" parent="1" vertex="1">
          <mxGeometry x="440.0048417374593" y="599.9975873762127" width="100" height="30" as="geometry" />
        </mxCell>
        <mxCell id="7q5nI9EUTdH4edbtuk_T-22" value="&lt;div style=&quot;font-family: Consolas, &amp;quot;Courier New&amp;quot;, monospace; font-size: 14px; line-height: 19px; white-space-collapse: preserve;&quot;&gt;√DistanceSquared&lt;/div&gt;" style="text;html=1;align=center;verticalAlign=middle;resizable=0;points=[];autosize=1;strokeColor=none;fillColor=none;" parent="1" vertex="1">
          <mxGeometry x="529.9997590361446" y="554.9994915254238" width="150" height="30" as="geometry" />
        </mxCell>
        <mxCell id="tPdqhXPq1oOfbnj5yxoE-1" value="" style="shape=curlyBracket;whiteSpace=wrap;html=1;rounded=1;flipH=1;labelPosition=right;verticalLabelPosition=middle;align=left;verticalAlign=middle;size=0.5;rotation=38;" vertex="1" parent="1">
          <mxGeometry x="543" y="460.47" width="20" height="160" as="geometry" />
        </mxCell>
        <mxCell id="tPdqhXPq1oOfbnj5yxoE-4" value="" style="endArrow=none;dashed=1;html=1;dashPattern=1 3;strokeWidth=3;rounded=0;entryX=0.812;entryY=0.101;entryDx=0;entryDy=0;entryPerimeter=0;strokeColor=none;" edge="1" parent="1" target="tPdqhXPq1oOfbnj5yxoE-2">
          <mxGeometry width="50" height="50" relative="1" as="geometry">
            <mxPoint x="490" y="590" as="sourcePoint" />
            <mxPoint x="530" y="490" as="targetPoint" />
          </mxGeometry>
        </mxCell>
        <mxCell id="tPdqhXPq1oOfbnj5yxoE-5" value="" style="shape=curlyBracket;whiteSpace=wrap;html=1;rounded=1;flipH=1;labelPosition=right;verticalLabelPosition=middle;align=left;verticalAlign=middle;size=0.5;rotation=4;direction=north;" vertex="1" parent="1">
          <mxGeometry x="490" y="605" width="295" height="20" as="geometry" />
        </mxCell>
        <mxCell id="tPdqhXPq1oOfbnj5yxoE-6" value="&lt;div style=&quot;font-family: Consolas, &amp;quot;Courier New&amp;quot;, monospace; font-size: 14px; line-height: 19px; white-space-collapse: preserve;&quot;&gt;√RadiusSquared&lt;/div&gt;" style="text;html=1;align=center;verticalAlign=middle;resizable=0;points=[];autosize=1;strokeColor=none;fillColor=none;" vertex="1" parent="1">
          <mxGeometry x="580.8997590361446" y="629.9994915254238" width="130" height="30" as="geometry" />
        </mxCell>
        <mxCell id="tPdqhXPq1oOfbnj5yxoE-10" value="" style="shape=curlyBracket;whiteSpace=wrap;html=1;rounded=1;flipH=1;labelPosition=right;verticalLabelPosition=middle;align=left;verticalAlign=middle;size=0.5;rotation=37;direction=south;" vertex="1" parent="1">
          <mxGeometry x="577" y="509.40000000000003" width="250" height="20" as="geometry" />
        </mxCell>
        <mxCell id="tPdqhXPq1oOfbnj5yxoE-11" value="&lt;div style=&quot;font-family: Consolas, &amp;quot;Courier New&amp;quot;, monospace; font-size: 14px; line-height: 19px; white-space-collapse: preserve;&quot;&gt;DistanceFromCamera&lt;/div&gt;" style="text;html=1;align=center;verticalAlign=middle;resizable=0;points=[];autosize=1;strokeColor=none;fillColor=none;" vertex="1" parent="1">
          <mxGeometry x="680" y="469.25" width="160" height="30" as="geometry" />
        </mxCell>
      </root>
    </mxGraphModel>
  </diagram>
</mxfile>
